<svg xmlns="http://www.w3.org/2000/svg" viewBox="0 0 1600 900" width="1600" height="900" style="background:#0d1117"><style>.title{font-family:system-ui;fill:#e6edf3;}</style><text x="180" y="32" font-family="system-ui,-apple-system,sans-serif" font-size="22" font-weight="700" fill="#e6edf3" text-anchor="start">Pipeline Flow — All Deals, Ever-Reached by Stage</text><text x="180" y="54" font-family="system-ui,-apple-system,sans-serif" font-size="12" font-weight="400" fill="#8b949e" text-anchor="start">Total created: 883  ·  Won: 7  ·  Lost: 599  ·  Open: 277  ·  pulled 2026-04-21</text><path d="M 208 166.3590033975085 C 262.75 166.3590033975085 262.75 166.3590033975085 317.5 166.3590033975085 L 317.5 743.6409966024914 C 262.75 743.6409966024914 262.75 743.6409966024914 208 743.6409966024914 Z" fill="#3ab8b7" opacity="0.4"/>
<path d="M 345.5 306.3193657984145 C 400.25 306.3193657984145 400.25 306.3193657984145 455 306.3193657984145 L 455 603.6806342015855 C 400.25 603.6806342015855 400.25 603.6806342015855 345.5 603.6806342015855 Z" fill="#3ab8b7" opacity="0.4"/>
<path d="M 483 402.678369195923 C 537.75 402.678369195923 537.75 402.678369195923 592.5 402.678369195923 L 592.5 507.321630804077 C 537.75 507.321630804077 537.75 507.321630804077 483 507.321630804077 Z" fill="#3ab8b7" opacity="0.4"/>
<path d="M 620.5 421.86296715741787 C 675.25 421.86296715741787 675.25 421.86296715741787 730 421.86296715741787 L 730 488.13703284258213 C 675.25 488.13703284258213 675.25 488.13703284258213 620.5 488.13703284258213 Z" fill="#3ab8b7" opacity="0.4"/>
<path d="M 758 436.25141562853906 C 812.75 436.25141562853906 812.75 436.25141562853906 867.5 436.25141562853906 L 867.5 473.74858437146094 C 812.75 473.74858437146094 812.75 473.74858437146094 758 473.74858437146094 Z" fill="#3ab8b7" opacity="0.4"/>
<path d="M 895.5 449.7678369195923 C 950.25 449.7678369195923 950.25 449.7678369195923 1005 449.7678369195923 L 1005 460.2321630804077 C 950.25 460.2321630804077 950.25 460.2321630804077 895.5 460.2321630804077 Z" fill="#3ab8b7" opacity="0.4"/>
<path d="M 1033 451.0758776896942 C 1087.75 451.0758776896942 1087.75 451.0758776896942 1142.5 451.0758776896942 L 1142.5 458.9241223103058 C 1087.75 458.9241223103058 1087.75 458.9241223103058 1033 458.9241223103058 Z" fill="#3ab8b7" opacity="0.4"/>
<path d="M 1170.5 451.94790486976217 C 1225.25 451.94790486976217 1225.25 70 1280 70 L 1280 76.10419026047566 C 1225.25 76.10419026047566 1225.25 458.05209513023783 1170.5 458.05209513023783 Z" fill="#3fb950" opacity="0.6"/><rect x="180" y="70" width="28" height="770" fill="#3ab8b7" stroke="none" rx="4"/><text x="170" y="451" font-family="system-ui,-apple-system,sans-serif" font-size="13" font-weight="600" fill="#e6edf3" text-anchor="end">Created</text><text x="170" y="469" font-family="system-ui,-apple-system,sans-serif" font-size="12" font-weight="400" fill="#8b949e" text-anchor="end">883</text><rect x="317.5" y="166.3590033975085" width="28" height="577.281993204983" fill="#3ab8b7" stroke="none" rx="4"/><text x="331.5" y="158.3590033975085" font-family="system-ui,-apple-system,sans-serif" font-size="12" font-weight="600" fill="#e6edf3" text-anchor="middle">Reunião Agendada</text><text x="331.5" y="144.3590033975085" font-family="system-ui,-apple-system,sans-serif" font-size="14" font-weight="700" fill="#e6edf3" text-anchor="middle">662</text><rect x="455" y="306.3193657984145" width="28" height="297.36126840317104" fill="#58a6ff" stroke="none" rx="4"/><text x="469" y="298.3193657984145" font-family="system-ui,-apple-system,sans-serif" font-size="12" font-weight="600" fill="#e6edf3" text-anchor="middle">Diagnóstico</text><text x="469" y="284.3193657984145" font-family="system-ui,-apple-system,sans-serif" font-size="14" font-weight="700" fill="#e6edf3" text-anchor="middle">341</text><rect x="592.5" y="402.678369195923" width="28" height="104.643261608154" fill="#58a6ff" stroke="none" rx="4"/><text x="606.5" y="394.678369195923" font-family="system-ui,-apple-system,sans-serif" font-size="12" font-weight="600" fill="#e6edf3" text-anchor="middle">Cotação</text><text x="606.5" y="380.678369195923" font-family="system-ui,-apple-system,sans-serif" font-size="14" font-weight="700" fill="#e6edf3" text-anchor="middle">120</text><rect x="730" y="421.86296715741787" width="28" height="66.27406568516422" fill="#ab47bc" stroke="none" rx="4"/><text x="744" y="413.86296715741787" font-family="system-ui,-apple-system,sans-serif" font-size="12" font-weight="600" fill="#e6edf3" text-anchor="middle">Consultoria</text><text x="744" y="399.86296715741787" font-family="system-ui,-apple-system,sans-serif" font-size="14" font-weight="700" fill="#e6edf3" text-anchor="middle">76</text><rect x="867.5" y="436.25141562853906" width="28" height="37.49716874292186" fill="#d29922" stroke="none" rx="4"/><text x="881.5" y="428.25141562853906" font-family="system-ui,-apple-system,sans-serif" font-size="12" font-weight="600" fill="#e6edf3" text-anchor="middle">Negociação</text><text x="881.5" y="414.25141562853906" font-family="system-ui,-apple-system,sans-serif" font-size="14" font-weight="700" fill="#e6edf3" text-anchor="middle">43</text><rect x="1005" y="449.7678369195923" width="28" height="10.464326160815402" fill="#d29922" stroke="none" rx="4"/><text x="1019" y="441.7678369195923" font-family="system-ui,-apple-system,sans-serif" font-size="12" font-weight="600" fill="#e6edf3" text-anchor="middle">Implantação</text><text x="1019" y="427.7678369195923" font-family="system-ui,-apple-system,sans-serif" font-size="14" font-weight="700" fill="#e6edf3" text-anchor="middle">12</text><rect x="1142.5" y="451.0758776896942" width="28" height="7.848244620611552" fill="#3fb950" stroke="none" rx="4"/><text x="1156.5" y="443.0758776896942" font-family="system-ui,-apple-system,sans-serif" font-size="12" font-weight="600" fill="#e6edf3" text-anchor="middle">Ganho</text><text x="1156.5" y="429.0758776896942" font-family="system-ui,-apple-system,sans-serif" font-size="14" font-weight="700" fill="#e6edf3" text-anchor="middle">9</text><rect x="1280" y="70" width="28" height="6.104190260475651" fill="#3fb950" stroke="none" rx="4"/><text x="1318" y="74.10419026047565" font-family="system-ui,-apple-system,sans-serif" font-size="12" font-weight="400" fill="#e6edf3" text-anchor="start">Won: 7</text><rect x="1280" y="78.10419026047565" width="28" height="16.568516421291054" fill="#58a6ff" stroke="none" rx="4"/><text x="1318" y="90.38844847112118" font-family="system-ui,-apple-system,sans-serif" font-size="12" font-weight="400" fill="#e6edf3" text-anchor="start">Open — Late (Consultoria+): 19</text><rect x="1280" y="96.6727066817667" width="28" height="77.61041902604757" fill="#58a6ff99" stroke="none" rx="4"/><text x="1318" y="139.47791619479048" font-family="system-ui,-apple-system,sans-serif" font-size="12" font-weight="400" fill="#e6edf3" text-anchor="start">Open — Mid (Diag./Cot.): 89</text><rect x="1280" y="176.28312570781426" width="28" height="91.56285390713477" fill="#58a6ff66" stroke="none" rx="4"/><text x="1318" y="226.06455266138164" font-family="system-ui,-apple-system,sans-serif" font-size="12" font-weight="400" fill="#e6edf3" text-anchor="start">Open — Early (RA): 105</text><rect x="1280" y="269.84597961494904" width="28" height="55.809739524348814" fill="#d29922" stroke="none" rx="4"/><text x="1318" y="301.7508493771235" font-family="system-ui,-apple-system,sans-serif" font-size="12" font-weight="400" fill="#e6edf3" text-anchor="start">Stale (open >90d): 64</text><rect x="1280" y="327.65571913929784" width="28" height="12.208380520951302" fill="#f85149" stroke="none" rx="4"/><text x="1318" y="337.7599093997735" font-family="system-ui,-apple-system,sans-serif" font-size="12" font-weight="400" fill="#e6edf3" text-anchor="start">Lost — Late: 14</text><rect x="1280" y="341.86409966024917" width="28" height="203.18233295583238" fill="#f8514999" stroke="none" rx="4"/><text x="1318" y="447.45526613816537" font-family="system-ui,-apple-system,sans-serif" font-size="12" font-weight="400" fill="#e6edf3" text-anchor="start">Lost — Mid: 233</text><rect x="1280" y="547.0464326160816" width="28" height="306.9535673839185" fill="#f8514966" stroke="none" rx="4"/><text x="1318" y="704.5232163080408" font-family="system-ui,-apple-system,sans-serif" font-size="12" font-weight="400" fill="#e6edf3" text-anchor="start">Lost — Early (≤RA): 352</text><text x="262.75" y="860" font-family="system-ui,-apple-system,sans-serif" font-size="10" font-weight="400" fill="#8b949e" text-anchor="middle">75.0% advance</text><text x="262.75" y="874" font-family="system-ui,-apple-system,sans-serif" font-size="10" font-weight="400" fill="#f85149" text-anchor="middle">(−221)</text><text x="400.25" y="860" font-family="system-ui,-apple-system,sans-serif" font-size="10" font-weight="400" fill="#8b949e" text-anchor="middle">51.5% advance</text><text x="400.25" y="874" font-family="system-ui,-apple-system,sans-serif" font-size="10" font-weight="400" fill="#f85149" text-anchor="middle">(−321)</text><text x="537.75" y="860" font-family="system-ui,-apple-system,sans-serif" font-size="10" font-weight="400" fill="#8b949e" text-anchor="middle">35.2% advance</text><text x="537.75" y="874" font-family="system-ui,-apple-system,sans-serif" font-size="10" font-weight="400" fill="#f85149" text-anchor="middle">(−221)</text><text x="675.25" y="860" font-family="system-ui,-apple-system,sans-serif" font-size="10" font-weight="400" fill="#8b949e" text-anchor="middle">63.3% advance</text><text x="675.25" y="874" font-family="system-ui,-apple-system,sans-serif" font-size="10" font-weight="400" fill="#f85149" text-anchor="middle">(−44)</text><text x="812.75" y="860" font-family="system-ui,-apple-system,sans-serif" font-size="10" font-weight="400" fill="#8b949e" text-anchor="middle">56.6% advance</text><text x="812.75" y="874" font-family="system-ui,-apple-system,sans-serif" font-size="10" font-weight="400" fill="#f85149" text-anchor="middle">(−33)</text><text x="950.25" y="860" font-family="system-ui,-apple-system,sans-serif" font-size="10" font-weight="400" fill="#8b949e" text-anchor="middle">27.9% advance</text><text x="950.25" y="874" font-family="system-ui,-apple-system,sans-serif" font-size="10" font-weight="400" fill="#f85149" text-anchor="middle">(−31)</text><text x="1087.75" y="860" font-family="system-ui,-apple-system,sans-serif" font-size="10" font-weight="400" fill="#8b949e" text-anchor="middle">75.0% advance</text><text x="1087.75" y="874" font-family="system-ui,-apple-system,sans-serif" font-size="10" font-weight="400" fill="#f85149" text-anchor="middle">(−3)</text><text x="180" y="882" font-family="system-ui,-apple-system,sans-serif" font-size="11" font-weight="400" fill="#8b949e" text-anchor="start">Left: entry point  ·  Middle: cumulative deals that ever reached each funnel stage  ·  Right: current terminal outcome</text></svg>