<svg xmlns="http://www.w3.org/2000/svg" width="70" height="128" viewBox="0 0 70 128" fill="none"><path d="M54.2837 64C63.703 57.7477 69.9146 47.0657 69.9146 34.9174C69.9146 15.6309 54.2837 0 34.9971 0C15.7106 0 0.0899048 15.6309 0.0899048 34.9072C0.0899048 47.0555 6.30152 57.7477 15.7106 64C6.30152 70.2625 0.0899048 80.9547 0.0899048 93.0928C0.0899048 112.369 15.7208 128 34.9971 128C54.2735 128 69.9044 112.369 69.9044 93.0928C69.9044 80.9445 63.6928 70.2422 54.2735 63.9898L54.2837 64ZM4.74352 34.9072C4.74352 18.197 18.2869 4.65362 34.9971 4.65362C51.7074 4.65362 65.2508 18.197 65.2508 34.9072C65.2508 46.3122 58.9373 56.2406 49.6097 61.3932C48.2248 60.7516 46.7992 60.1916 45.3227 59.7435L37.8789 34.9174H32.0339L24.58 59.7842C23.134 60.2323 21.7287 60.7822 20.3744 61.4033C11.057 56.2508 4.74352 46.3224 4.74352 34.9174V34.9072ZM34.9971 123.357C18.2869 123.357 4.74352 109.813 4.74352 93.1029C4.74352 81.698 11.057 71.7696 20.3846 66.617C21.0057 66.9021 21.6473 67.1771 22.2888 67.4317L18.1138 81.362H23.1543L26.7897 68.8573C29.4271 69.4886 32.1663 69.8348 34.9971 69.8348C36.1173 69.8348 37.2272 69.7737 38.327 69.6719L37.0032 65.1099C36.3413 65.1507 35.6692 65.1812 34.9971 65.1812C32.6245 65.1812 30.313 64.8961 28.0931 64.3768L28.3171 63.6029L29.2947 60.2527L34.9564 40.7726L40.1395 58.5827C38.4594 58.3383 36.7486 58.2059 34.9971 58.2059C34.9768 58.2059 34.9462 58.2059 34.9259 58.2059L33.5613 62.9002C34.0399 62.8799 34.5185 62.8595 34.9971 62.8595C37.2679 62.8595 39.4675 63.1141 41.5957 63.5927L41.8299 64.4073L43.1333 68.8878L46.7687 81.3823H51.8092L47.6444 67.4826C48.3165 67.2178 48.9784 66.9429 49.6301 66.6374C58.9475 71.79 65.2711 81.7184 65.2711 93.1335C65.2711 109.844 51.7278 123.387 35.0175 123.387L34.9971 123.357Z" fill="black"></path></svg>
